# xmcd
#
# Track frame offsets: 
#        150
#        17516
#        30336
#        46954
#        59149
#        73329
#        84515
#        105919
#        118031
#        130232
#        142547
#        154338
#        170781
#        186250
#        196577
#
# Disc length: 3118 seconds
#
# Revision: 0
# Processed by: cddbd v1.5.1PL0 Copyright (c) Steve Scherf et al.
# Submitted via: ExactAudioCopy v0.95b3
#
DISCID=c70c2c0f
DTITLE=Bobby Goldsboro - Country Legends: Brand New Kind of Love
DYEAR=2005
DGENRE=Country
TTITLE0=Honey
TTITLE1=The Straight Life
TTITLE2=With Pen in Hand
TTITLE3=Muddy Mississippi Line
TTITLE4=Blue Autumn
TTITLE5=Little Things
TTITLE6=Summer (The First Time)
TTITLE7=Watchin' Scotty Grow
TTITLE8=See the Funny Little Clown
TTITLE9=Broomstick Cowboy
TTITLE10=It's Too Late
TTITLE11=Autumn of My Life
TTITLE12=I'm a Drifter
TTITLE13=Whenever He Holds You
TTITLE14=Bonus Track: Audio Interview - Wisk Martindale's "Chat with B
TTITLE14=obby Goldsboro"
EXTD=Original artist, songs re-recorded
EXTT0=
EXTT1=
EXTT2=
EXTT3=
EXTT4=
EXTT5=
EXTT6=
EXTT7=
EXTT8=
EXTT9=
EXTT10=
EXTT11=
EXTT12=
EXTT13=
EXTT14=
PLAYORDER=
